<svg width="79" height="79" viewBox="0 0 79 79" fill="none" xmlns="http://www.w3.org/2000/svg">
    <g id="Page-1" stroke="none" stroke-width="1" fill="none" fill-rule="evenodd">
        <g id="Medium-S" transform="translate(0.665940, 0.853500)" fill="#000000" fill-rule="nonzero">
            <path d="M39.4043 78.8086C44.8079 78.8086 49.8861 77.7832 54.6387 75.7324C59.3913 73.6816 63.5824 70.8333 67.212 67.1875C70.8415 63.5416 73.6898 59.3424 75.7569 54.5898C77.8239 49.8372 78.8575 44.7754 78.8575 39.4043C78.8575 34.0332 77.8239 28.9714 75.7569 24.2187C73.6898 19.4661 70.8333 15.2669 67.1875 11.6211C63.5417 7.97523 59.3425 5.12694 54.5899 3.0762C49.8373 1.0254 44.7591 0 39.3555 0C33.9844 0 28.9226 1.0254 24.17 3.0762C19.4174 5.12694 15.2344 7.97523 11.6211 11.6211C8.00779 15.2669 5.16763 19.4661 3.10058 24.2187C1.03353 28.9714 0 34.0332 0 39.4043C0 44.7754 1.03353 49.8372 3.10058 54.5898C5.16763 59.3424 8.01593 63.5416 11.6455 67.1875C15.2751 70.8333 19.4662 73.6816 24.2188 75.7324C28.9714 77.7832 34.0332 78.8086 39.4043 78.8086ZM39.4043 71.3867C34.9772 71.3867 30.835 70.5648 26.9776 68.9209C23.1201 67.277 19.7347 64.9902 16.8213 62.0605C13.9079 59.1308 11.6292 55.7292 9.98536 51.8555C8.34149 47.9818 7.51956 43.8314 7.51956 39.4043C7.51956 34.9772 8.33336 30.8268 9.96096 26.9531C11.5886 23.0794 13.8591 19.6777 16.7725 16.748C19.6859 13.8183 23.0713 11.5316 26.9287 9.8877C30.7861 8.24384 34.9284 7.42191 39.3555 7.42191C43.8151 7.42191 47.9737 8.24384 51.8311 9.8877C55.6885 11.5316 59.082 13.8183 62.0118 16.748C64.9414 19.6777 67.2363 23.0794 68.8965 26.9531C70.5567 30.8268 71.3868 34.9772 71.3868 39.4043C71.3868 43.8314 70.5648 47.9818 68.9209 51.8555C67.277 55.7292 64.9984 59.1308 62.085 62.0605C59.1716 64.9902 55.778 67.277 51.9043 68.9209C48.0306 70.5648 43.8639 71.3867 39.4043 71.3867ZM65.7227 64.7949L65.5762 64.3066C64.9902 62.4186 63.5254 60.5713 61.1817 58.7646C58.8379 56.958 55.8106 55.4688 52.0996 54.2969C48.3886 53.125 44.1569 52.5391 39.4043 52.5391C34.6843 52.5391 30.4606 53.125 26.7334 54.2969C23.0062 55.4688 19.9788 56.958 17.6514 58.7646C15.3239 60.5713 13.8672 62.4186 13.2813 64.3066L13.1348 64.7949C15.446 67.0736 18.221 69.0023 21.46 70.5811C24.6989 72.1598 27.9216 73.3643 31.128 74.1943C34.3343 75.0244 37.0931 75.4395 39.4043 75.4395C41.7155 75.4395 44.4824 75.0244 47.7051 74.1943C50.9277 73.3643 54.1504 72.1598 57.3731 70.5811C60.5957 69.0023 63.3789 67.0736 65.7227 64.7949ZM39.4043 46.0937C41.8783 46.1263 44.1081 45.5078 46.0938 44.2383C48.0794 42.9688 49.6582 41.2435 50.8301 39.0625C52.0019 36.8815 52.5879 34.4075 52.5879 31.6406C52.5879 29.069 52.0019 26.709 50.8301 24.5605C49.6582 22.4121 48.0794 20.695 46.0938 19.4092C44.1081 18.1234 41.8783 17.4805 39.4043 17.4805C36.9629 17.4805 34.7412 18.1234 32.7393 19.4092C30.7373 20.695 29.1504 22.4121 27.9786 24.5605C26.8066 26.709 26.237 29.069 26.2696 31.6406C26.2696 34.4075 26.8555 36.8734 28.0274 39.0381C29.1992 41.2028 30.778 42.9118 32.7637 44.165C34.7493 45.4183 36.9629 46.0612 39.4043 46.0937Z"/>
        </g>
    </g>
</svg>
