<?xml version="1.0" encoding="UTF-8"?>
<svg width="102px" height="94px" viewBox="0 0 102 94" version="1.1" xmlns="http://www.w3.org/2000/svg" xmlns:xlink="http://www.w3.org/1999/xlink">
    <title>Semibold-M</title>
    <g id="Page-1" stroke="none" stroke-width="1" fill="none" fill-rule="evenodd">
        <g id="heart" transform="translate(-1992.000000, -1045.000000)" fill="#000000" fill-rule="nonzero">
            <g id="Symbols" transform="translate(500.000000, 622.000000)">
                <g id="Semibold-M" transform="translate(1492.570000, 423.000000)">
                    <path d="M0.5723,32.0742 C0.5723,53.0215 18.1504,73.72461 45.2012,91.3027 C47.0566,92.5234 49.2539,93.6953 50.6699,93.6953 C52.1348,93.6953 54.2832,92.5234 56.1875,91.3027 C83.2383,73.72461 100.816,53.0215 100.816,32.0742 C100.816,13.5195 87.877,0.7754 71.7637,0.7754 C62.2422,0.7754 55.0156,5.0234 50.6699,11.3711 C46.4219,5.0723 39.0977,0.7754 29.625,0.7754 C13.4629,0.7754 0.5723,13.5195 0.5723,32.0742 Z M12.291,32.0254 C12.291,20.209 20.2012,12.1523 30.748,12.1523 C39.1953,12.1523 43.8828,17.1328 46.9102,21.625 C48.2773,23.5781 49.3027,24.3594 50.6699,24.3594 C52.0859,24.3594 53.0137,23.5781 54.4297,21.625 C57.6523,17.1816 62.1934,12.1523 70.6406,12.1523 C81.1875,12.1523 89.098,20.209 89.098,32.0254 C89.098,48.4316 72.252,67.0352 51.5488,80.853516 C51.1582,81.0976562 50.8652,81.244141 50.6699,81.244141 C50.5234,81.244141 50.2305,81.0976562 49.8398,80.853516 C29.1367,67.0352 12.291,48.4316 12.291,32.0254 Z" id="Shape"></path>
                </g>
            </g>
        </g>
    </g>
</svg>