<?xml version="1.0" encoding="UTF-8"?>
<svg width="83px" height="82px" viewBox="0 0 83 82" version="1.1" xmlns="http://www.w3.org/2000/svg" xmlns:xlink="http://www.w3.org/1999/xlink">
    <title>Bold-M</title>
    <g id="Page-1" stroke="none" stroke-width="1" fill="none" fill-rule="evenodd">
        <g id="xmark" transform="translate(-2298.000000, -1050.000000)" fill="#362ABF" fill-rule="nonzero">
            <g id="Symbols" transform="translate(512.000000, 627.000000)">
                <g id="Bold-M" transform="translate(1786.970000, 423.000000)">
                    <path d="M2.5508,68.33398 C-0.1836,71.11719 -0.3301,76.244141 2.6484,79.17383 C5.627,82.15234 10.7051,82.05469 13.4883,79.27148 L41.0273,51.7324 L68.5176,79.22266 C71.3984,82.15234 76.3789,82.10352 79.3086,79.125 C82.2871,76.195312 82.2871,71.21484 79.4062,68.33398 L51.916,40.8438 L79.4062,13.3047 C82.2871,10.4238 82.2871,5.4434 79.3086,2.5137 C76.3789,-0.4648 71.3984,-0.4648 68.5176,2.416 L41.0273,29.9062 L13.4883,2.3672 C10.7051,-0.3672 5.5781,-0.5137 2.6484,2.4648 C-0.2812,5.4434 -0.1836,10.5215 2.5508,13.3047 L30.0898,40.8438 L2.5508,68.33398 Z" id="Path"></path>
                </g>
            </g>
        </g>
    </g>
</svg>