<?xml version="1.0" encoding="UTF-8"?>
<svg width="355px" height="47px" viewBox="0 0 355 47" version="1.1" xmlns="http://www.w3.org/2000/svg" xmlns:xlink="http://www.w3.org/1999/xlink">
    <title>DS_RGB_Inverse</title>
    <g id="Page-1" stroke="none" stroke-width="1" fill="none" fill-rule="evenodd">
        <g id="DS_RGB_Inverse" fill-rule="nonzero">
            <path d="M43.54,13.9 C42.61,11.17 41.21,8.79 39.35,6.76 C37.49,4.73 35.17,3.12 32.4,1.94 C29.63,0.76 26.4,0.16 22.72,0.16 L6.34,0.16 L6.34,7.84 L15.1,7.84 L16.26,7.84 L22.72,7.84 C24.84,7.84 26.73,8.2 28.4,8.92 C30.07,9.64 31.48,10.66 32.62,11.97 C33.76,13.28 34.63,14.85 35.22,16.67 C35.81,18.49 36.11,20.48 36.11,22.64 C36.11,24.76 35.81,26.72 35.22,28.54 C34.63,30.36 33.77,31.94 32.65,33.27 C31.53,34.6 30.13,35.65 28.46,36.41 C26.79,37.17 24.87,37.55 22.72,37.55 L16.26,37.55 L15.1,37.55 L6.34,37.55 L6.34,45.23 L22.72,45.23 C26.1,45.23 29.16,44.69 31.89,43.61 C34.62,42.53 36.96,41.01 38.9,39.04 C40.85,37.07 42.34,34.7 43.38,31.93 C44.42,29.16 44.94,26.06 44.94,22.63 C44.93,19.54 44.47,16.63 43.54,13.9 Z" id="Path" fill="#FFFFFF"></path>
            <polygon id="Path" fill="#CE009F" points="13.64 18.68 13.64 13.17 6.04 13.17 6.04 18.68 0.5 18.68 0.5 26.34 6.04 26.34 6.04 31.85 13.64 31.85 13.64 26.34 19.06 26.34 19.06 18.68"></polygon>
            <path d="M268.31,45.06 L285.95,0.33 L293,0.33 L310.58,45.06 L301.38,45.06 L297.28,33.91 L281.6,33.91 L277.5,45.06 L268.31,45.06 Z M289.48,9.71 L283.05,27.79 L295.71,27.79 L289.48,9.71 Z" id="Shape" fill="#CE009F"></path>
            <path d="M96.22,22.55 C96.22,19.8 96.71,17.08 97.68,14.39 C98.65,11.7 100.06,9.3 101.9,7.19 C103.74,5.07 105.99,3.36 108.66,2.05 C111.33,0.74 114.37,0.08 117.8,0.08 C121.82,0.08 125.3,0.99 128.24,2.81 C131.18,4.63 133.35,7 134.75,9.92 L128.02,14.55 C127.51,13.28 126.86,12.21 126.05,11.34 C125.25,10.47 124.37,9.78 123.42,9.28 C122.47,8.77 121.48,8.4 120.47,8.17 C119.45,7.94 118.48,7.82 117.55,7.82 C115.48,7.82 113.66,8.26 112.09,9.15 C110.52,10.04 109.22,11.19 108.19,12.61 C107.15,14.03 106.37,15.64 105.84,17.43 C105.31,19.23 105.05,21.02 105.05,22.79 C105.05,24.78 105.36,26.69 105.97,28.53 C106.58,30.37 107.45,31.99 108.57,33.39 C109.69,34.79 111.03,35.91 112.6,36.75 C114.16,37.6 115.88,38.02 117.74,38.02 C118.71,38.02 119.71,37.89 120.72,37.64 C121.74,37.39 122.72,36.98 123.67,36.43 C124.62,35.88 125.5,35.17 126.3,34.3 C127.1,33.43 127.76,32.39 128.27,31.16 L135.44,35.29 C134.76,36.98 133.78,38.47 132.49,39.76 C131.2,41.05 129.73,42.14 128.08,43.03 C126.43,43.92 124.69,44.6 122.88,45.06 C121.06,45.52 119.26,45.76 117.48,45.76 C114.35,45.76 111.48,45.08 108.88,43.73 C106.28,42.38 104.03,40.61 102.15,38.43 C100.27,36.25 98.81,33.78 97.77,31 C96.74,28.25 96.22,25.43 96.22,22.55 Z" id="Path" fill="#FFFFFF"></path>
            <path d="M70.64,45.72 C67.47,45.72 64.57,45.08 61.94,43.78 C59.32,42.49 57.06,40.78 55.18,38.64 C53.3,36.5 51.85,34.06 50.83,31.31 C49.81,28.56 49.31,25.75 49.31,22.87 C49.31,19.87 49.85,16.99 50.93,14.24 C52.01,11.49 53.51,9.06 55.44,6.94 C57.37,4.82 59.64,3.14 62.26,1.89 C64.88,0.64 67.74,0.02 70.83,0.02 C74,0.02 76.9,0.69 79.53,2.02 C82.15,3.35 84.4,5.1 86.26,7.26 C88.12,9.42 89.56,11.87 90.58,14.62 C91.6,17.37 92.1,20.16 92.1,23 C92.1,26.01 91.56,28.87 90.48,31.6 C89.4,34.33 87.91,36.74 86.01,38.84 C84.11,40.93 81.84,42.61 79.22,43.85 C76.58,45.09 73.73,45.72 70.64,45.72 Z M58.14,22.87 C58.14,24.82 58.43,26.7 59,28.52 C59.57,30.34 60.4,31.95 61.48,33.34 C62.56,34.74 63.88,35.86 65.45,36.7 C67.02,37.55 68.79,37.97 70.78,37.97 C72.81,37.97 74.6,37.54 76.14,36.67 C77.68,35.8 78.99,34.65 80.04,33.21 C81.1,31.77 81.9,30.15 82.45,28.35 C83,26.55 83.28,24.72 83.28,22.86 C83.28,20.91 82.98,19.03 82.39,17.21 C81.8,15.39 80.96,13.78 79.88,12.39 C78.8,10.99 77.49,9.88 75.94,9.06 C74.39,8.23 72.65,7.82 70.7,7.82 C68.67,7.82 66.88,8.25 65.34,9.12 C63.8,9.99 62.48,11.13 61.4,12.55 C60.32,13.97 59.51,15.58 58.96,17.37 C58.41,19.18 58.14,21.01 58.14,22.87 Z" id="Shape" fill="#FFFFFF"></path>
            <path d="M168.2,12.14 C167.9,11.84 167.36,11.44 166.58,10.93 C165.8,10.42 164.84,9.93 163.72,9.44 C162.6,8.95 161.38,8.54 160.07,8.2 C158.76,7.86 157.42,7.69 156.07,7.69 C153.66,7.69 151.86,8.13 150.67,9.02 C149.49,9.91 148.89,11.16 148.89,12.76 C148.89,13.69 149.11,14.46 149.56,15.08 C150,15.69 150.65,16.23 151.5,16.7 C152.35,17.17 153.41,17.59 154.71,17.97 C156,18.35 157.49,18.75 159.19,19.18 C161.39,19.77 163.39,20.41 165.19,21.08 C166.99,21.76 168.51,22.6 169.76,23.62 C171.01,24.64 171.97,25.85 172.65,27.27 C173.33,28.69 173.67,30.43 173.67,32.51 C173.67,34.92 173.21,36.98 172.3,38.7 C171.39,40.41 170.17,41.8 168.65,42.86 C167.13,43.92 165.35,44.69 163.32,45.18 C161.29,45.67 159.17,45.91 156.97,45.91 C153.58,45.91 150.24,45.4 146.94,44.39 C143.64,43.37 140.68,41.94 138.05,40.07 L141.92,32.52 C142.3,32.9 142.99,33.4 143.98,34.01 C144.97,34.62 146.15,35.24 147.5,35.85 C148.85,36.46 150.36,36.98 152.01,37.41 C153.66,37.83 155.35,38.04 157.09,38.04 C161.91,38.04 164.33,36.5 164.33,33.41 C164.33,32.39 164.05,31.55 163.5,30.87 C162.95,30.19 162.17,29.6 161.15,29.09 C160.14,28.58 158.91,28.12 157.47,27.69 C156.03,27.27 154.42,26.82 152.65,26.36 C150.49,25.77 148.62,25.12 147.03,24.42 C145.44,23.72 144.12,22.91 143.06,21.98 C142,21.05 141.21,19.95 140.68,18.68 C140.15,17.41 139.89,15.91 139.89,14.17 C139.89,11.88 140.31,9.85 141.16,8.08 C142.01,6.3 143.18,4.82 144.68,3.64 C146.18,2.46 147.93,1.56 149.92,0.94 C151.91,0.33 154.05,0.02 156.33,0.02 C159.5,0.02 162.42,0.52 165.09,1.51 C167.76,2.5 170.08,3.68 172.07,5.03 L168.2,12.14 Z" id="Path" fill="#CE009F"></path>
            <path d="M246.39,37.97 C248.46,37.97 250.21,37.55 251.63,36.7 C253.05,35.85 254.19,34.75 255.06,33.4 C255.93,32.05 256.54,30.49 256.9,28.73 C257.26,26.97 257.44,25.17 257.44,23.3 L257.44,0.34 L266.14,0.34 L266.14,23.32 C266.14,26.41 265.77,29.31 265.03,32.02 C264.29,34.73 263.13,37.1 261.54,39.13 C259.95,41.16 257.91,42.77 255.42,43.95 C252.92,45.14 249.94,45.73 246.47,45.73 C242.87,45.73 239.82,45.11 237.3,43.86 C234.78,42.61 232.74,40.96 231.18,38.91 C229.61,36.86 228.48,34.48 227.78,31.77 C227.08,29.06 226.73,26.25 226.73,23.33 L226.73,0.34 L235.49,0.34 L235.49,23.32 C235.49,25.22 235.67,27.05 236.03,28.81 C236.39,30.57 237,32.12 237.87,33.48 C238.74,34.83 239.87,35.92 241.27,36.75 C242.65,37.56 244.36,37.97 246.39,37.97 Z" id="Path" fill="#CE009F"></path>
            <path d="M316.02,45.4 L316.02,0.34 L332.4,0.34 C336.08,0.34 339.31,0.93 342.08,2.12 C344.85,3.31 347.17,4.91 349.03,6.94 C350.89,8.97 352.29,11.35 353.22,14.08 C354.15,16.81 354.62,19.72 354.62,22.81 C354.62,26.24 354.1,29.34 353.06,32.11 C352.02,34.88 350.53,37.25 348.58,39.22 C346.63,41.19 344.3,42.71 341.57,43.79 C338.84,44.87 335.78,45.41 332.4,45.41 L316.02,45.41 L316.02,45.4 Z M345.79,22.8 C345.79,20.64 345.49,18.65 344.9,16.83 C344.31,15.01 343.44,13.45 342.3,12.13 C341.16,10.82 339.75,9.8 338.08,9.08 C336.41,8.36 334.51,8 332.4,8 L324.78,8 L324.78,37.7 L332.4,37.7 C334.56,37.7 336.47,37.32 338.14,36.56 C339.81,35.8 341.21,34.75 342.33,33.42 C343.45,32.09 344.31,30.51 344.9,28.69 C345.49,26.89 345.79,24.92 345.79,22.8 Z" id="Shape" fill="#CE009F"></path>
            <path d="M199.17,37.97 C197.18,37.97 195.4,37.55 193.84,36.7 C192.27,35.85 190.95,34.73 189.87,33.34 C188.79,31.94 187.97,30.34 187.39,28.52 C186.82,26.7 186.53,24.82 186.53,22.87 C186.53,21.01 186.81,19.18 187.36,17.38 C187.91,15.58 188.73,13.96 189.8,12.52 C190.88,11.08 192.19,9.93 193.74,9.06 C195.28,8.19 197.07,7.76 199.1,7.76 C201.05,7.76 202.79,8.18 204.34,9.03 C205.88,9.88 207.2,11 208.28,12.39 C209.36,13.79 210.19,15.4 210.79,17.21 C211.38,19.03 211.68,20.91 211.68,22.86 C211.68,26.12 210.9,29.12 209.33,31.87 L218.8,31.87 C218.89,31.65 218.99,31.43 219.08,31.2 C220.03,28.6 220.51,25.86 220.51,22.98 C220.51,20.15 220,17.35 218.99,14.6 C217.97,11.85 216.54,9.4 214.67,7.24 C212.81,5.08 210.57,3.34 207.94,2 C205.32,0.67 202.42,1.42108547e-14 199.24,1.42108547e-14 C196.15,1.42108547e-14 193.29,0.62 190.67,1.87 C188.05,3.12 185.77,4.8 183.85,6.92 C181.92,9.04 180.42,11.47 179.34,14.22 C178.26,16.97 177.72,19.85 177.72,22.85 C177.72,25.73 178.23,28.54 179.24,31.29 C180.25,34.04 181.7,36.47 183.59,38.59 C185.47,40.71 187.73,42.42 190.35,43.73 C192.97,45.04 195.87,45.7 199.05,45.7 C201.21,45.7 203.23,45.4 205.11,44.81 C206.61,44.34 208.02,43.71 209.35,42.94 L203.59,37.09 C202.23,37.69 200.76,37.97 199.17,37.97 Z" id="Path" fill="#CE009F"></path>
            <polygon id="Path" fill="#CE009F" points="215.24 37.89 209.32 31.88 201.02 31.88 198.43 31.88 203.59 37.11 209.34 42.96 213.22 46.89 224.11 46.89"></polygon>
            <polygon id="Path" fill="#CE009F" points="209.33 31.88 209.32 31.88"></polygon>
        </g>
    </g>
</svg>