<?xml version="1.0" encoding="UTF-8"?>
<svg width="45px" height="46px" viewBox="0 0 45 46" version="1.1" xmlns="http://www.w3.org/2000/svg" xmlns:xlink="http://www.w3.org/1999/xlink">
    <title>DS_RGB_Inverse</title>
    <g id="Page-1" stroke="none" stroke-width="1" fill="none" fill-rule="evenodd">
        <g id="DS_RGB_Inverse" fill-rule="nonzero">
            <path d="M43.54,13.9 C42.61,11.17 41.21,8.79 39.35,6.76 C37.49,4.73 35.17,3.12 32.4,1.94 C29.63,0.76 26.4,0.16 22.72,0.16 L6.34,0.16 L6.34,7.84 L15.1,7.84 L16.26,7.84 L22.72,7.84 C24.84,7.84 26.73,8.2 28.4,8.92 C30.07,9.64 31.48,10.66 32.62,11.97 C33.76,13.28 34.63,14.85 35.22,16.67 C35.81,18.49 36.11,20.48 36.11,22.64 C36.11,24.76 35.81,26.72 35.22,28.54 C34.63,30.36 33.77,31.94 32.65,33.27 C31.53,34.6 30.13,35.65 28.46,36.41 C26.79,37.17 24.87,37.55 22.72,37.55 L16.26,37.55 L15.1,37.55 L6.34,37.55 L6.34,45.23 L22.72,45.23 C26.1,45.23 29.16,44.69 31.89,43.61 C34.62,42.53 36.96,41.01 38.9,39.04 C40.85,37.07 42.34,34.7 43.38,31.93 C44.42,29.16 44.94,26.06 44.94,22.63 C44.93,19.54 44.47,16.63 43.54,13.9 Z" id="Path" fill="#FFFFFF"></path>
            <polygon id="Path" fill="#CE009F" points="13.64 18.68 13.64 13.17 6.04 13.17 6.04 18.68 0.5 18.68 0.5 26.34 6.04 26.34 6.04 31.85 13.64 31.85 13.64 26.34 19.06 26.34 19.06 18.68"></polygon>
        </g>
    </g>
</svg>