<?xml version="1.0" encoding="UTF-8"?>
<svg width="94px" height="80px" viewBox="0 0 94 80" version="1.1" xmlns="http://www.w3.org/2000/svg" xmlns:xlink="http://www.w3.org/1999/xlink">
    <title>Regular-S</title>
    <g id="Page-1" stroke="none" stroke-width="1" fill="none" fill-rule="evenodd">
        <g id="Regular-S" fill="#000000" fill-rule="nonzero">
            <path d="M54.2402,79.15039 C75.7734,79.15039 93.6934,61.2793 93.6934,39.7461 C93.6934,18.2129 75.7246,0.3418 54.1914,0.3418 C34.3184,0.3418 17.61914,15.5762 15.17773,34.8145 C17.27734,34.4238 20.4512,34.2773 22.7461,34.5703 C25.1387,19.2871 38.1758,7.7637 54.1914,7.7637 C71.9648,7.7637 86.2227,21.9727 86.2227,39.7461 C86.2227,47.9492 83.1953,55.4199 78.1172,61.0352 C74.1621,56.6895 65.4707,52.8809 54.1914,52.8809 C50.7734,52.8809 47.5996,53.2715 44.6699,53.8574 C45.1582,55.7617 45.4023,57.8125 45.4023,59.8145 C45.4023,65.9668 43.1074,71.67969 39.3477,76.12305 C43.9863,78.07617 49.0156,79.15039 54.2402,79.15039 Z M54.1914,46.4355 C61.5645,46.5332 67.375,40.2344 67.375,31.9824 C67.375,24.2188 61.5645,17.8223 54.1914,17.8223 C46.8672,17.8223 41.0078,24.2188 41.0566,31.9824 C41.1055,40.2344 46.8184,46.3379 54.1914,46.4355 Z M19.9629,79.54102 C30.6074,79.54102 39.6406,70.60547 39.6406,59.8145 C39.6406,49.0234 30.7539,40.1367 19.9629,40.1367 C9.17188,40.1367 0.23633,49.0234 0.23633,59.8145 C0.23633,70.70312 9.17188,79.54102 19.9629,79.54102 Z M19.9629,72.50977 C18.498,72.50977 17.22852,71.5332 17.22852,69.9707 L17.22852,62.3535 L10.24609,62.3535 C8.878906,62.3535 7.707031,61.1816 7.707031,59.8145 C7.707031,58.4961 8.878906,57.3242 10.24609,57.3242 L17.22852,57.3242 L17.22852,49.707 C17.22852,48.0957 18.498,47.168 19.9629,47.168 C21.3789,47.168 22.6484,48.0957 22.6484,49.707 L22.6484,57.3242 L29.6797,57.3242 C31.0469,57.3242 32.1699,58.4961 32.1699,59.8145 C32.1699,61.1816 31.0469,62.3535 29.6797,62.3535 L22.6484,62.3535 L22.6484,69.9707 C22.6484,71.5332 21.3789,72.50977 19.9629,72.50977 Z" id="Shape"></path>
        </g>
    </g>
</svg>