<?xml version="1.0" encoding="UTF-8"?>
<svg width="99px" height="86px" viewBox="0 0 99 86" version="1.1"
    xmlns="http://www.w3.org/2000/svg">
    <title>Bold-S</title>
    <g id="Page-1" stroke="none" stroke-width="1" fill="none" fill-rule="evenodd">
        <g id="Bold-S" fill="#362abf" fill-rule="nonzero">
            <path
                d="M0.76562,74.92383 C0.76562,81.22266 4.2812,85.03125 10.2383,85.03125 L58.9688,85.03125 C59.4082,85.03125 59.7988,84.98242 60.1895,84.93359 L60.1895,85.03125 L89.3887,85.03125 C95.346,85.03125 98.861,81.22266 98.861,74.92383 L98.861,29.7578 C98.861,23.459 95.346,19.6504 89.3887,19.6504 L68.4414,19.6504 L68.4414,10.666 C68.4414,4.3184 64.9258,0.5586 58.9688,0.5586 L10.2383,0.5586 C4.2812,0.5586 0.76562,4.3184 0.76562,10.666 L0.76562,74.92383 Z M11.166,73.11719 L11.166,12.4238 C11.166,11.4961 11.7031,10.9102 12.6797,10.9102 L56.5762,10.9102 C57.5039,10.9102 58.0898,11.4961 58.0898,12.4238 L58.0898,73.11719 C58.0898,74.09375 57.5039,74.63086 56.5762,74.63086 L49.0078,74.63086 L49.0078,63.8398 C49.0078,60.6172 47.2988,58.8105 44.2715,58.8105 L24.9844,58.8105 C21.957,58.8105 20.248,60.6172 20.248,63.8398 L20.248,74.63086 L12.6797,74.63086 C11.7031,74.63086 11.166,74.09375 11.166,73.11719 Z M22.4453,26.877 L29.2812,26.877 C30.1602,26.877 30.7949,26.2422 30.7949,25.3633 L30.7949,18.6738 C30.7949,17.7461 30.1602,17.1113 29.2812,17.1113 L22.4453,17.1113 C21.5176,17.1113 20.9316,17.7461 20.9316,18.6738 L20.9316,25.3633 C20.9316,26.2422 21.5176,26.877 22.4453,26.877 Z M39.9258,26.877 L46.8105,26.877 C47.6895,26.877 48.2754,26.2422 48.2754,25.3633 L48.2754,18.6738 C48.2754,17.7461 47.6895,17.1113 46.8105,17.1113 L39.9258,17.1113 C39.0469,17.1113 38.4609,17.7461 38.4609,18.6738 L38.4609,25.3633 C38.4609,26.2422 39.0469,26.877 39.9258,26.877 Z M86.9961,30.002 C87.9238,30.002 88.5098,30.5879 88.5098,31.5156 L88.5098,73.11719 C88.5098,74.09375 87.9238,74.63086 86.9961,74.63086 L68.4414,74.63086 L68.4414,30.002 L86.9961,30.002 Z M22.4453,40.4023 L29.2812,40.4023 C30.1602,40.4023 30.7949,39.7676 30.7949,38.8398 L30.7949,32.1504 C30.7949,31.2715 30.1602,30.6367 29.2812,30.6367 L22.4453,30.6367 C21.5176,30.6367 20.9316,31.2715 20.9316,32.1504 L20.9316,38.8398 C20.9316,39.7676 21.5176,40.4023 22.4453,40.4023 Z M39.9258,40.4023 L46.8105,40.4023 C47.6895,40.4023 48.2754,39.7676 48.2754,38.8398 L48.2754,32.1504 C48.2754,31.2715 47.6895,30.6367 46.8105,30.6367 L39.9258,30.6367 C39.0469,30.6367 38.4609,31.2715 38.4609,32.1504 L38.4609,38.8398 C38.4609,39.7676 39.0469,40.4023 39.9258,40.4023 Z M75.6191,43.5762 L81.332,43.5762 C82.0645,43.5762 82.5527,43.0391 82.5527,42.3066 L82.5527,36.7402 C82.5527,36.0078 82.0645,35.4707 81.332,35.4707 L75.6191,35.4707 C74.8867,35.4707 74.3984,36.0078 74.3984,36.7402 L74.3984,42.3066 C74.3984,43.0391 74.8867,43.5762 75.6191,43.5762 Z M22.4453,53.8789 L29.2812,53.8789 C30.1602,53.8789 30.7949,53.293 30.7949,52.3652 L30.7949,45.6758 C30.7949,44.748 30.1602,44.1621 29.2812,44.1621 L22.4453,44.1621 C21.5176,44.1621 20.9316,44.748 20.9316,45.6758 L20.9316,52.3652 C20.9316,53.293 21.5176,53.8789 22.4453,53.8789 Z M39.9258,53.8789 L46.8105,53.8789 C47.6895,53.8789 48.2754,53.293 48.2754,52.3652 L48.2754,45.6758 C48.2754,44.748 47.6895,44.1621 46.8105,44.1621 L39.9258,44.1621 C39.0469,44.1621 38.4609,44.748 38.4609,45.6758 L38.4609,52.3652 C38.4609,53.293 39.0469,53.8789 39.9258,53.8789 Z M75.6191,56.7109 L81.332,56.7109 C82.0645,56.7109 82.5527,56.2227 82.5527,55.4414 L82.5527,49.875 C82.5527,49.1426 82.0645,48.6543 81.332,48.6543 L75.6191,48.6543 C74.8867,48.6543 74.3984,49.1426 74.3984,49.875 L74.3984,55.4414 C74.3984,56.2227 74.8867,56.7109 75.6191,56.7109 Z M75.6191,69.89453 L81.332,69.89453 C82.0645,69.89453 82.5527,69.35742 82.5527,68.625 L82.5527,63.0586 C82.5527,62.3262 82.0645,61.7891 81.332,61.7891 L75.6191,61.7891 C74.8867,61.7891 74.3984,62.3262 74.3984,63.0586 L74.3984,68.625 C74.3984,69.35742 74.8867,69.89453 75.6191,69.89453 Z M27.9629,67.0625 C27.9629,66.3789 28.3047,66.0371 28.9883,66.0371 L40.2676,66.0371 C40.9512,66.0371 41.293,66.3789 41.293,67.0625 L41.293,74.63086 L27.9629,74.63086 L27.9629,67.0625 Z"
                id="Shape"></path>
        </g>
    </g>
</svg>