<?xml version="1.0" encoding="UTF-8"?>
<svg width="77px" height="77px" viewBox="0 0 77 77" version="1.1"
    xmlns="http://www.w3.org/2000/svg">
    <title>icon_phone</title>
    <g id="Page-1" stroke="none" stroke-width="1" fill="none" fill-rule="evenodd">
        <g id="icon_phone" fill="#362abf" fill-rule="nonzero">
            <path
                d="M57.332,76.97852 C64.3633,76.97852 68.709,75.12305 72.6152,70.67969 C72.957,70.28906 73.25,69.89844 73.5918,69.55664 C75.8867,66.91992 76.9609,64.38086 76.9609,61.9395 C76.9609,59.0098 75.252,56.2754 71.541,53.7363 L60.3594,45.9238 C56.7461,43.4336 52.5469,43.2383 49.373,46.3633 L46.3457,49.3906 C45.4668,50.2695 44.7832,50.2695 44.0508,49.7812 C41.8535,48.3652 37.752,44.6543 35.1641,42.0664 C32.5762,39.4785 29.4023,35.9629 27.9375,33.7168 C27.4492,32.9355 27.4492,32.3008 28.3281,31.4219 L31.4043,28.3457 C34.5293,25.2207 34.334,20.9727 31.7949,17.3594 L24.0312,6.2266 C21.4434,2.5156 18.709,0.8066 15.7793,0.7578 C13.3867,0.709 10.8477,1.832 8.2109,4.127 C7.8203,4.4688 7.4785,4.8105 7.0879,5.1523 C2.6445,9.0098 0.78906,13.4043 0.78906,20.3867 C0.78906,31.4219 7.4297,45.0449 20.0762,57.6914 C32.6738,70.28906 46.2969,76.97852 57.332,76.97852 Z M57.3809,70.33789 C47.6152,70.5332 34.9199,62.9648 25.1055,53.1504 C15.1934,43.3359 7.1855,30.1035 7.4297,20.3379 C7.5273,16.1875 8.9922,12.6719 11.9219,10.1816 C12.2148,9.9375 12.459,9.7422 12.752,9.498 C13.7285,8.7168 14.8516,8.2285 15.8281,8.2285 C16.9023,8.2285 17.8789,8.6191 18.5625,9.6934 L25.9844,20.875 C26.7168,21.9492 26.7168,23.0723 25.7402,24 L22.2246,27.5156 C19.3926,30.3965 19.6367,33.8145 21.7852,36.5488 C24.1777,39.6738 28.084,44.0195 30.7207,46.5586 C33.3086,49.1465 38.0938,53.541 41.2188,55.9824 C43.9531,58.082 47.3711,58.375 50.2031,55.4941 L53.7188,51.9785 C54.6953,51.0508 55.8184,51.0508 56.8926,51.7832 L68.0254,59.2051 C69.1484,59.8887 69.4902,60.8164 69.4902,61.8906 C69.4902,62.916 69.0508,64.03906 68.2207,65.01562 C68.0254,65.30859 67.8301,65.55273 67.5859,65.79688 C65.0957,68.77539 61.5312,70.24023 57.3809,70.33789 Z"
                id="Shape"></path>
        </g>
    </g>
</svg>