<svg width="20" height="20" viewBox="0 0 20 20" fill="none" xmlns="http://www.w3.org/2000/svg">
    <path d="M2 0C1.466 0 0.962937 0.207938 0.585938 0.585938C0.207938 0.963938 0 1.467 0 2V5C0 7.94204 1.83005 10.4544 4.4082 11.4863C4.76204 12.1019 5.32167 12.5754 6 12.8164V16C6 18.206 7.794 20 10 20H14C16.206 20 18 18.206 18 16V15.8164C19.1628 15.4033 20 14.3046 20 13C20 11.343 18.657 10 17 10C15.343 10 14 11.343 14 13C14 14.3046 14.8372 15.4033 16 15.8164V16C16 17.103 15.103 18 14 18H10C8.897 18 8 17.103 8 16V12.8164C8.67833 12.5754 9.23796 12.1019 9.5918 11.4863C12.17 10.4535 14 7.93699 14 4.97656V2C14 0.897 13.103 0 12 0H10V2H12V5C12 7.757 9.757 10 7 10C4.243 10 2.00095 7.75656 2.00195 4.97656L2 2H4V0H2ZM17 11.75C17.69 11.75 18.25 12.31 18.25 13C18.25 13.69 17.69 14.25 17 14.25C16.31 14.25 15.75 13.69 15.75 13C15.75 12.31 16.31 11.75 17 11.75Z" fill="#362ABF"/>
</svg>
