<?xml version="1.0" encoding="UTF-8"?>
<svg width="80px" height="80px" viewBox="0 0 80 80" version="1.1"
    xmlns="http://www.w3.org/2000/svg">
    <title>Regular-S</title>
    <g id="Page-1" stroke="none" stroke-width="1" fill="none" fill-rule="evenodd">
        <g id="Regular-S" transform="translate(0.415940, 0.341800)" fill="#777777"
            fill-rule="nonzero">
            <path
                d="M39.40426,78.80859 C60.93746,78.80859 78.85746,60.9375 78.85746,39.4043 C78.85746,17.8711 60.88866,0 39.35546,0 C17.87106,0 -8.8817842e-16,17.8711 -8.8817842e-16,39.4043 C-8.8817842e-16,60.9375 17.91996,78.80859 39.40426,78.80859 Z M39.40426,71.38672 C21.67966,71.38672 7.51956,57.1777 7.51956,39.4043 C7.51956,21.6309 21.63086,7.4219 39.35546,7.4219 C57.12886,7.4219 71.33786,21.6309 71.3868849,39.4043 C71.43556,57.1777 57.17776,71.38672 39.40426,71.38672 Z M26.51366,55.8594 C27.49026,55.8594 28.36916,55.4687 28.95506,54.7852 L39.35546,44.3359 L49.80466,54.7852 C50.43946,55.4199 51.26956,55.8594 52.29496,55.8594 C54.19926,55.8594 55.76176,54.248 55.76176,52.2949 C55.76176,51.3184 55.37106,50.5371 54.73636,49.8535 L44.33596,39.4531 L54.78516,28.9551 C55.46876,28.2715 55.81056,27.4902 55.81056,26.5625 C55.81056,24.6094 54.24806,23.0957 52.34376,23.0957 C51.41606,23.0957 50.68356,23.3887 49.95116,24.1211 L39.35546,34.6191 L28.90626,24.1699 C28.27146,23.4863 27.49026,23.1934 26.51366,23.1934 C24.60936,23.1934 23.04686,24.6582 23.04686,26.6113 C23.04686,27.5391 23.43746,28.3691 24.07226,29.0039 L34.47266,39.4531 L24.07226,49.9023 C23.43746,50.5371 23.04686,51.3672 23.04686,52.2949 C23.04686,54.248 24.60936,55.8594 26.51366,55.8594 Z"
                id="Shape"></path>
        </g>
    </g>
</svg>