<?xml version="1.0" encoding="UTF-8"?>
<svg width="94px" height="93px" viewBox="0 0 94 93" version="1.1" xmlns="http://www.w3.org/2000/svg" xmlns:xlink="http://www.w3.org/1999/xlink">
    <title>Semibold-M</title>
    <g id="Page-1" stroke="none" stroke-width="1" fill="none" fill-rule="evenodd">
        <g id="heart.text.square" transform="translate(-1996.000000, -1044.000000)" fill="#000000" fill-rule="nonzero">
            <g id="Symbols" transform="translate(504.000000, 622.000000)">
                <g id="Semibold-M" transform="translate(1492.650000, 422.000000)">
                    <path d="M17.1016,92.9863 L76.0859,92.9863 C86.9746,92.9863 92.785,87.17578 92.785,76.43359 L92.785,17.1562 C92.785,6.4141 86.9746,0.6523 76.0859,0.6523 L17.1016,0.6523 C6.2617,0.6523 0.4512,6.4141 0.4512,17.1562 L0.4512,76.43359 C0.4512,87.22461 6.2617,92.9863 17.1016,92.9863 Z M18.127,81.804688 C13.8789,81.804688 11.6328,79.65625 11.6328,75.21289 L11.6328,18.377 C11.6328,13.9336 13.8789,11.834 18.127,11.834 L75.1094,11.834 C79.2598,11.834 81.6035,13.9336 81.6035,18.377 L81.6035,75.21289 C81.6035,79.65625 79.2598,81.804688 75.1094,81.804688 L18.127,81.804688 Z M27.3066,20.0371 C23.5957,20.0371 20.7148,23.0156 20.7148,27.166 C20.7148,33.8066 28.0391,39.1289 31.6035,41.5215 C32.043,41.8145 32.5312,42.0586 32.9219,42.0586 C33.3125,42.0586 33.752,41.7656 34.1914,41.5215 C37.7559,39.4219 45.0801,33.8066 45.0801,27.166 C45.0801,23.0156 42.1992,20.0371 38.3906,20.0371 C35.9004,20.0371 33.9473,21.5508 32.873,23.5039 C31.7988,21.5508 29.8945,20.0371 27.3066,20.0371 Z M23.9375,55.9746 L69.3477,55.9746 C71.1543,55.9746 72.5215,54.5586 72.5215,52.752 C72.5215,51.043 71.1543,49.6758 69.3477,49.6758 L23.9375,49.6758 C22.0332,49.6758 20.7148,51.043 20.7148,52.752 C20.7148,54.5586 22.0332,55.9746 23.9375,55.9746 Z M23.9375,71.502 L57.7754,71.502 C59.582,71.502 60.9492,70.1348 60.9492,68.377 C60.9492,66.5703 59.582,65.1543 57.7754,65.1543 L23.9375,65.1543 C22.0332,65.1543 20.7148,66.5703 20.7148,68.377 C20.7148,70.1348 22.0332,71.502 23.9375,71.502 Z" id="Shape"></path>
                </g>
            </g>
        </g>
    </g>
</svg>