<?xml version="1.0" encoding="UTF-8"?>
<svg width="96px" height="96px" viewBox="0 0 96 96" version="1.1" xmlns="http://www.w3.org/2000/svg" xmlns:xlink="http://www.w3.org/1999/xlink">
    <title>Semibold-M</title>
    <g id="Page-1" stroke="none" stroke-width="1" fill="none" fill-rule="evenodd">
        <g id="magnifyingglass" transform="translate(-1996.000000, -1043.000000)" fill="#aaaaaa" fill-rule="nonzero">
            <g id="Symbols" transform="translate(500.000000, 621.000000)">
                <g id="Semibold-M" transform="translate(1496.010000, 422.000000)">
                    <path d="M39.3418,78.55664 C46.8125,78.55664 53.8438,76.4082 59.8008,72.6973 L79.918,92.81445 C81.5293,94.4258 83.7266,95.207 85.9727,95.207 C90.709,95.207 94.273,91.54492 94.273,86.80859 C94.273,84.66016 93.541,82.511719 91.881,80.90039 L71.959,60.9297 C76.0605,54.7285 78.4043,47.3555 78.4043,39.4453 C78.4043,17.9609 60.8262,0.334 39.3418,0.334 C17.8574,0.334 0.2305,17.9121 0.2305,39.4453 C0.2305,60.9297 17.8574,78.55664 39.3418,78.55664 Z M39.3418,66.6426 C24.3516,66.6426 12.0957,54.3867 12.0957,39.4453 C12.0957,24.5039 24.3516,12.248 39.3418,12.248 C54.2832,12.248 66.5391,24.5039 66.5391,39.4453 C66.5391,54.3867 54.2832,66.6426 39.3418,66.6426 Z" id="Shape"></path>
                </g>
            </g>
        </g>
    </g>
</svg>