<?xml version="1.0" encoding="UTF-8"?>
<svg width="620px" height="1024px" viewBox="0 0 620 1024" version="1.1" xmlns="http://www.w3.org/2000/svg" xmlns:xlink="http://www.w3.org/1999/xlink">
    <g id="Page-1" stroke="none" stroke-width="1" fill="none" fill-rule="evenodd">
        <g id="chevron.left" transform="translate(-2305.000000, -1045.000000)" fill="#362abf" fill-rule="nonzero">
            <g id="Symbols" transform="translate(524.000000, 623.000000)">
                <g id="Bold-M" transform="translate(1781.720000, 422.000000)">
                    <path d="M6.92302769,514.769301 C6.92302769,543.341152 16.8131798,566.96742 40.9890321,590.043429 L454.175508,994.439596 C471.757925,1012.02201 492.637398,1020.26375 517.363059,1020.26375 C568.461785,1020.26375 609.67047,979.054952 609.67047,929.054945 C609.67047,903.230768 599.231297,880.153881 580.000352,861.47252 L221.75789,514.220167 L580.000352,168.065407 C599.231297,148.835587 609.67047,125.758453 609.67047,100.483657 C609.67047,50.4832 568.461785,9.27451429 517.363059,9.27451429 C492.637398,9.27451429 471.757925,18.0662857 454.175508,35.098444 L40.9890321,439.494048 C17.3626514,462.571182 6.92302769,485.648316 6.92302769,514.769301 Z" id="Path"></path>
                </g>
            </g>
        </g>
    </g>
</svg>