<svg width="13" height="10" viewBox="0 0 13 10" fill="none" xmlns="http://www.w3.org/2000/svg">
    <path
        d="M11.3196 0.992477C11.1464 0.997638 10.982 1.07002 10.8612 1.1943L3.99924 8.05628L1.80393 5.86097C1.7425 5.79698 1.66892 5.7459 1.5875 5.71071C1.50608 5.67552 1.41846 5.65693 1.32977 5.65603C1.24107 5.65513 1.15309 5.67193 1.07097 5.70546C0.988854 5.73898 0.914251 5.78856 0.851532 5.85128C0.788813 5.914 0.739238 5.9886 0.705712 6.07072C0.672186 6.15284 0.655382 6.24082 0.656285 6.32951C0.657187 6.41821 0.675777 6.50583 0.710967 6.58725C0.746157 6.66867 0.797239 6.74225 0.861221 6.80368L3.52789 9.47034C3.65292 9.59532 3.82246 9.66553 3.99924 9.66553C4.17602 9.66553 4.34557 9.59532 4.4706 9.47034L11.8039 2.13701C11.9003 2.04337 11.9661 1.92281 11.9927 1.79113C12.0193 1.65945 12.0056 1.52279 11.9532 1.39907C11.9009 1.27534 11.8123 1.17032 11.6993 1.09777C11.5862 1.02522 11.4538 0.988517 11.3196 0.992477Z"
        fill="#555555" />
</svg>
