<svg width="8" height="16" viewBox="0 0 8 16" fill="none" xmlns="http://www.w3.org/2000/svg">
    <path
        d="M7.652 9.38673C7.42 8.98073 7.05867 8.62406 6.56933 8.31806C6.07933 8.0114 5.39733 7.73073 4.524 7.4754C3.65067 7.22073 3.02333 6.9374 2.64267 6.62473C2.26133 6.3134 2.07067 5.89406 2.07067 5.36806C2.07067 4.8014 2.25133 4.35873 2.61267 4.04206C2.97333 3.72473 3.49467 3.56673 4.176 3.56673C4.82867 3.56673 5.348 3.78073 5.73133 4.2094C5.91133 4.41006 6.04867 4.6434 6.14467 4.9094C6.192 5.04206 6.27733 5.34873 6.282 5.36206C6.416 5.7634 6.64467 5.9974 7.03933 5.9974C7.47533 5.9974 7.82867 5.7214 7.82867 5.20806C7.82867 5.1114 7.808 5.0094 7.79533 4.9494C7.67533 4.35206 7.43867 3.85273 7.084 3.45073C6.548 2.84406 5.79933 2.48073 4.83667 2.36273L4.83333 2.36206V1.33073C4.83333 0.962729 4.53467 0.664062 4.16667 0.664062C3.79867 0.664062 3.5 0.962729 3.5 1.33073V2.36473C2.572 2.47473 1.83733 2.79073 1.302 3.3194C0.754667 3.86006 0.480667 4.55206 0.480667 5.39606C0.480667 6.22473 0.76 6.90806 1.31867 7.44606C1.87733 7.9834 2.76667 8.42006 3.98667 8.75473C4.86333 9.0174 5.486 9.31073 5.856 9.63473C6.22467 9.9594 6.41 10.3581 6.41 10.8314C6.41 11.3927 6.19467 11.8354 5.76533 12.1594C5.33533 12.4834 4.74533 12.6454 3.99467 12.6454C3.22733 12.6454 2.55133 12.4527 2.13333 12.0667C1.852 11.8074 1.666 11.4734 1.574 11.0647C1.57067 11.0494 1.522 10.8927 1.48733 10.8281C1.35667 10.5814 1.09067 10.4154 0.791333 10.4154C0.354667 10.4141 0 10.7687 0 11.2061C0 11.3981 0.0960001 11.6701 0.125333 11.7501C0.275333 12.1601 0.518667 12.5327 0.823333 12.8334C1.412 13.4127 2.30667 13.7467 3.33333 13.8447V14.6641C3.33333 15.0321 3.63133 15.3307 3.99933 15.3307C4.36733 15.3307 4.666 15.0321 4.666 14.6641V13.8574L4.68267 13.8567C5.73067 13.7587 6.546 13.4454 7.12733 12.9147C7.70867 12.3847 8 11.6847 8 10.8154C8 10.2701 7.88333 9.7934 7.652 9.38673Z"
        fill="#555555" />
</svg>
