<?xml version="1.0" encoding="UTF-8"?>
<svg width="1025px" height="1015px" viewBox="0 0 1025 1015" version="1.1" xmlns="http://www.w3.org/2000/svg" xmlns:xlink="http://www.w3.org/1999/xlink">
    <title>Bold-M</title>
    <g id="Page-1" stroke="none" stroke-width="1" fill="none" fill-rule="evenodd">
        <g id="globe" transform="translate(-2287.000000, -1039.000000)" fill="#555555" fill-rule="nonzero">
            <g id="Symbols" transform="translate(498.000000, 618.000000)">
                <g id="Bold-M" transform="translate(1789.500000, 421.000000)">
                    <path d="M511.980495,1009.40946 C788.647741,1009.40946 1016.26636,781.790452 1016.26636,505.123596 C1016.26636,227.98141 788.647741,0.361813333 511.504579,0.361813333 C234.361417,0.361813333 7.21900495,227.98141 7.21900495,505.123596 C7.21900495,781.790452 234.838309,1009.40946 511.980495,1009.40946 Z M221.504853,224.171154 C267.695055,176.076312 325.789989,139.886202 390.075733,118.933211 C354.83843,153.218682 325.314072,202.266331 303.40925,261.314072 C271.028419,251.313981 243.409676,238.933333 221.504853,224.171154 Z M633.409341,119.409128 C698.171002,139.886202 755.790019,176.552229 801.981196,224.171154 C780.076373,238.933333 752.456655,251.313981 720.552716,261.790964 C698.647893,202.266331 668.647619,153.695573 633.409341,119.409128 Z M378.171002,278.933699 C402.933272,214.171063 437.218743,165.123413 474.361661,145.124206 L474.361661,288.93379 C440.552107,287.505067 408.171276,284.171703 378.171002,278.933699 Z M549.123413,145.124206 C586.266331,165.123413 620.552777,214.171063 645.314072,278.933699 C615.314773,284.171703 582.932968,287.505067 549.123413,288.93379 L549.123413,145.124206 Z M109.124267,467.504762 C115.314103,398.932846 139.123566,335.123992 175.790568,280.838339 C202.933394,301.314438 239.600396,318.457173 281.981318,331.790629 C271.981227,373.695634 265.790415,419.40992 263.409859,467.504762 L109.124267,467.504762 Z M760.07619,467.504762 C757.695634,419.40992 751.504823,373.695634 741.504731,331.790629 C784.36157,318.457173 820.552655,301.314438 847.695482,280.838339 C884.361509,335.599909 908.170971,398.932846 914.8416,467.504762 L760.07619,467.504762 Z M339.600335,467.504762 C341.980891,426.552564 347.694811,387.028114 356.266179,350.362088 C393.409097,357.504731 433.409463,361.790903 474.361661,363.218651 L474.361661,467.504762 L339.600335,467.504762 Z M549.123413,467.504762 L549.123413,363.218651 C590.552503,361.790903 630.075977,357.504731 667.218895,350.362088 C675.790263,387.028114 681.981074,426.552564 684.36163,467.504762 L549.123413,467.504762 Z M108.647375,541.790598 L263.409859,541.790598 C265.790415,590.838248 271.981227,637.02845 282.457234,679.409371 C240.076312,692.742827 203.885227,709.885562 176.7424,729.885745 C139.600457,675.124175 115.314103,610.83843 108.647375,541.790598 Z M339.123444,541.790598 L474.361661,541.790598 L474.361661,647.981349 C433.409463,649.885989 393.409097,654.171185 356.74307,661.313829 C347.694811,623.694994 341.504975,583.218712 339.123444,541.790598 Z M549.123413,647.981349 L549.123413,541.790598 L684.36163,541.790598 C681.981074,583.218712 675.790263,623.694994 666.742979,661.313829 C630.075977,654.171185 590.552503,649.885989 549.123413,647.981349 Z M741.504731,679.409371 C751.504823,637.02845 758.17155,590.838248 760.07619,541.790598 L914.8416,541.790598 C908.170971,610.83843 884.361509,675.124175 847.21859,729.885745 C819.599848,709.885562 783.409737,692.742827 741.504731,679.409371 Z M378.647893,732.266301 C408.647192,727.505189 441.028998,724.171825 474.361661,722.743101 L474.361661,865.123767 C437.695634,845.123808 403.409189,796.552338 378.647893,732.266301 Z M549.123413,722.743101 C582.932968,724.171825 614.837882,727.505189 644.838156,732.266301 C620.075886,796.552338 586.266331,844.647619 549.123413,865.123767 L549.123413,722.743101 Z M222.933577,786.552344 C244.361509,772.266667 271.981227,759.885726 303.40925,749.885928 C325.314072,808.457167 354.83843,856.55238 389.599817,890.361954 C325.789989,869.885757 268.647863,833.695256 222.933577,786.552344 Z M720.075825,749.885928 C751.980739,759.885726 779.123566,772.266667 801.028389,786.552344 C754.838187,833.695256 697.695086,869.885757 633.885257,890.361954 C668.647619,856.55238 698.171002,808.457167 720.075825,749.885928 Z" id="Shape"></path>
                </g>
            </g>
        </g>
    </g>
</svg>