<?xml version="1.0" encoding="UTF-8"?>
<svg width="1025px" height="954px" viewBox="0 0 1025 954" version="1.1" xmlns="http://www.w3.org/2000/svg" xmlns:xlink="http://www.w3.org/1999/xlink">
    <title>Semibold-M</title>
    <g id="Page-1" stroke="none" stroke-width="1" fill="none" fill-rule="evenodd">
        <g id="heart" transform="translate(-1992.000000, -1045.000000)" fill="#362abf" fill-rule="nonzero">
            <g id="Symbols" transform="translate(500.000000, 622.000000)">
                <g id="Semibold-M" transform="translate(1492.570000, 423.000000)">
                    <path d="M5.80232871,325.187929 C5.80232871,537.564515 184.019897,747.465353 458.277513,925.68282 C477.088697,938.059026 499.366273,949.940467 513.72255,949.940467 C528.574606,949.940467 550.356404,938.059026 569.663366,925.68282 C843.920982,747.465353 1022.1345,537.564515 1022.1345,325.187929 C1022.1345,137.06899 890.95097,7.86148119 727.584444,7.86148119 C631.049632,7.86148119 557.781925,50.9303129 513.72255,115.287192 C470.653719,51.4260911 396.396483,7.86148119 300.356436,7.86148119 C136.495145,7.86148119 5.80232871,137.06899 5.80232871,325.187929 Z M124.613703,324.693164 C124.613703,204.891248 204.812166,123.207477 311.742099,123.207477 C397.386012,123.207477 444.910764,173.702844 475.604404,219.247525 C489.464903,239.049251 499.861038,246.97055 513.72255,246.97055 C528.078828,246.97055 537.485434,239.049251 551.841711,219.247525 C584.514408,174.197608 630.554867,123.207477 716.197766,123.207477 C823.128713,123.207477 903.330218,204.891248 903.330218,324.693164 C903.330218,491.029291 732.535129,679.644008 522.633378,819.742578 C518.673236,822.217821 515.702622,823.702974 513.72255,823.702974 C512.237244,823.702974 509.267644,822.217821 505.306487,819.742578 C295.40575,679.644008 124.613703,491.029291 124.613703,324.693164 Z" id="Shape"></path>
                </g>
            </g>
        </g>
    </g>
</svg>