<?xml version="1.0" encoding="UTF-8"?>
<svg width="76px" height="75px" viewBox="0 0 76 75" version="1.1"
    xmlns="http://www.w3.org/2000/svg">
    <title>icon_direction</title>
    <g id="Page-1" stroke="none" stroke-width="1" fill="none" fill-rule="evenodd">
        <g id="icon_direction" fill="#362abf" fill-rule="nonzero">
            <path
                d="M4.47266,30.2773 C-1.14258,32.8652 -0.06836,40.7754 6.7188,40.8242 L34.2578,40.9707 C34.8926,40.9707 35.0879,41.166 35.0879,41.8008 L35.1855,69.14453 C35.1855,75.63867 43.0469,77.29883 46.0742,70.804688 L74.4434,9.4277 C77.4219,3.1289 72.3438,-1.1191 66.2402,1.7129 L4.47266,30.2773 Z M12.041,34.2812 C11.7969,34.2812 11.6992,33.9883 11.9922,33.8418 L66.582,8.9883 C66.9238,8.8418 67.168,9.0371 66.9727,9.4277 L42.1191,63.82227 C41.9727,64.16406 41.6309,64.06641 41.6309,63.77344 L41.8262,37.1133 C41.8262,35.3555 40.5566,34.1348 38.7988,34.1348 L12.041,34.2812 Z"
                id="Shape"></path>
        </g>
    </g>
</svg>