<?xml version="1.0" encoding="UTF-8"?>
<svg width="81px" height="81px" viewBox="0 0 81 81" version="1.1" xmlns="http://www.w3.org/2000/svg" xmlns:xlink="http://www.w3.org/1999/xlink">
    <title>Medium-S</title>
    <g id="Page-1" stroke="none" stroke-width="1" fill="none" fill-rule="evenodd">
        <g id="Medium-S" transform="translate(0.665940, 0.853500)" fill="#000000" fill-rule="nonzero">
            <path d="M39.89256,79.78517 C61.71876,79.78517 79.78516,61.7188 79.78516,39.8926 C79.78516,18.0664 61.66996,0 39.84376,0 C18.01756,0 -8.8817842e-16,18.0664 -8.8817842e-16,39.8926 C-8.8817842e-16,61.7188 18.06636,79.78517 39.89256,79.78517 Z M39.89256,71.14259 C22.55856,71.14259 8.69136,57.2266 8.69136,39.8926 C8.69136,22.5586 22.50976,8.6914 39.84376,8.6914 C57.17776,8.6914 71.04496,22.5586 71.093888,39.8926 C71.14256,57.2266 57.22656,71.14259 39.89256,71.14259 Z M18.65236,43.6524 C18.65236,46.1914 20.41016,47.9492 22.94926,47.9492 L31.73826,47.9492 L31.73826,56.7383 C31.73826,59.3262 33.44726,61.0352 36.03516,61.0352 L43.55466,61.0352 C46.14256,61.0352 47.85156,59.3262 47.85156,56.7383 L47.85156,47.9492 L56.68946,47.9492 C59.22856,47.9492 60.98636,46.1914 60.98636,43.6524 L60.98636,36.084 C60.98636,33.5449 59.22856,31.7871 56.68946,31.7871 L47.85156,31.7871 L47.85156,23.0957 C47.85156,20.459 46.14256,18.75 43.55466,18.75 L36.03516,18.75 C33.44726,18.75 31.73826,20.459 31.73826,23.0957 L31.73826,31.7871 L22.94926,31.7871 C20.36136,31.7871 18.65236,33.5449 18.65236,36.084 L18.65236,43.6524 Z" id="Shape"></path>
        </g>
    </g>
</svg>